<mxfile host="app.diagrams.net" modified="2023-07-12T01:11:22.237Z" agent="Mozilla/5.0 (X11; Linux x86_64) AppleWebKit/537.36 (KHTML, like Gecko) Chrome/114.0.0.0 Safari/537.36" version="21.5.2" etag="c0LQS6dwrlygwz6HSTSp" type="github">
  <diagram name="Page-1" id="81SrWjyl8eu5nSyKgQhO">
    <mxGraphModel>
      <root>
        <mxCell id="0" />
        <mxCell id="1" parent="0" />
      </root>
    </mxGraphModel>
  </diagram>
</mxfile>
